<svg width="58" height="66" viewBox="0 0 58 66" fill="none" xmlns="http://www.w3.org/2000/svg">
<path d="M8.21143 6.15857H49.2686C49.813 6.15857 50.3352 6.37485 50.7202 6.75984C51.1051 7.14483 51.3214 7.66698 51.3214 8.21143V57.48C51.3214 58.0245 51.1051 58.5466 50.7202 58.9316C50.3352 59.3166 49.813 59.5329 49.2686 59.5329H8.21143C7.66698 59.5329 7.14483 59.3166 6.75984 58.9316C6.37485 58.5466 6.15857 58.0245 6.15857 57.48V8.21143C6.15857 7.66698 6.37485 7.14483 6.75984 6.75984C7.14483 6.37485 7.66698 6.15857 8.21143 6.15857ZM49.2686 0H8.21143C6.03362 0 3.94501 0.86513 2.40507 2.40507C0.86513 3.94501 0 6.03362 0 8.21143V57.48C0 59.6578 0.86513 61.7464 2.40507 63.2864C3.94501 64.8263 6.03362 65.6914 8.21143 65.6914H49.2686C51.4464 65.6914 53.535 64.8263 55.0749 63.2864C56.6149 61.7464 57.48 59.6578 57.48 57.48V8.21143C57.48 6.03362 56.6149 3.94501 55.0749 2.40507C53.535 0.86513 51.4464 0 49.2686 0ZM45.1629 15.3964H12.3171V21.555H45.1629V15.3964ZM12.3171 28.74H45.1629V34.8986H12.3171V28.74ZM36.9514 42.0836H12.3171V48.2421H36.9514V42.0836Z" fill="white"/>
</svg>
