<svg width="58" height="58" viewBox="0 0 58 58" fill="none" xmlns="http://www.w3.org/2000/svg">
<path d="M50.295 0H7.185C3.23325 0 0 3.23325 0 7.185V53.5282C0 55.6837 1.79625 57.48 3.95175 57.48C5.0295 57.48 5.748 57.1208 6.82575 56.4023L16.1662 46.7025H50.295C54.2467 46.7025 57.48 43.4692 57.48 39.5175V7.185C57.48 3.23325 54.2467 0 50.295 0ZM52.0912 39.5175C52.0912 40.5952 51.3727 41.3137 50.295 41.3137H14.0108L5.38875 49.9357V7.185C5.38875 6.10725 6.10725 5.38875 7.185 5.38875H50.295C51.3727 5.38875 52.0912 6.10725 52.0912 7.185V39.5175Z" fill="white"/>
<path d="M39.5175 39.5175C39.5175 35.5492 36.3008 32.3325 32.3325 32.3325H25.1475C21.1793 32.3325 17.9625 35.5492 17.9625 39.5175" fill="white"/>
<path d="M28.74 25.1475C32.7082 25.1475 35.925 21.9307 35.925 17.9625C35.925 13.9943 32.7082 10.7775 28.74 10.7775C24.7718 10.7775 21.555 13.9943 21.555 17.9625C21.555 21.9307 24.7718 25.1475 28.74 25.1475Z" fill="white"/>
</svg>
