<svg width="832" height="266" viewBox="0 0 832 266" fill="none" xmlns="http://www.w3.org/2000/svg">
<path d="M486.696 211.969C485.035 212.309 477.916 212.891 473.952 209.647C471.508 207.644 470.267 204.061 470.267 199.005V168.252C470.267 168.204 470.241 168.164 470.24 168.118C482.616 159.534 490.77 145.264 490.77 129.1V104.322C490.77 63.3371 457.433 30 416.447 30C375.462 30 342.125 63.3363 342.125 104.322V129.1C342.125 145.266 350.279 159.534 362.654 168.118C362.654 168.164 362.628 168.204 362.628 168.252V199.005C362.628 204.04 361.406 207.605 358.985 209.616C355.172 212.77 348.453 212.4 346.17 211.959C341.995 211.207 337.981 213.841 337.15 217.996C336.32 222.161 339.012 226.215 343.178 227.045C343.789 227.165 346.322 227.625 349.795 227.625C355.091 227.625 362.579 226.554 368.695 221.538C372.939 218.055 378.005 211.319 378.005 199.005V174.993C381.744 175.944 385.595 176.601 389.628 176.601H393.382V235.516C393.382 241.572 391.971 245.797 389.167 248.08C385.403 251.164 379.136 250.733 377.034 250.323C372.899 249.393 368.825 252.065 367.935 256.199C367.023 260.354 369.656 264.448 373.801 265.35C374.412 265.49 377.005 266 380.559 266C385.675 266 392.773 264.929 398.769 260.103C405.395 254.757 408.758 246.487 408.758 235.516V176.601H424.135V235.213C424.135 246.124 427.489 254.363 434.085 259.689C440.092 264.533 447.219 265.604 452.345 265.604C455.889 265.604 458.471 265.093 459.082 264.964C463.227 264.063 465.86 259.968 464.969 255.814C464.068 251.669 459.994 249.097 455.818 249.927C454.277 250.288 447.66 250.878 443.745 247.715C440.933 245.453 439.512 241.249 439.512 235.213V176.601H443.265C447.296 176.601 451.147 175.942 454.888 174.993V199.006C454.888 211.319 459.954 218.057 464.198 221.54C470.315 226.555 477.802 227.627 483.098 227.627C486.562 227.627 489.105 227.168 489.716 227.047C493.881 226.217 496.573 222.162 495.743 217.998C494.912 213.831 490.846 211.139 486.693 211.969L486.696 211.969ZM389.629 161.226C371.92 161.226 357.505 146.811 357.505 129.102L357.503 104.324C357.503 71.8184 383.942 45.3784 416.448 45.3784C448.955 45.3784 475.394 71.8176 475.394 104.324V129.102C475.394 146.811 460.979 161.226 443.269 161.226H389.629Z" fill="white"/>
<path d="M408.872 98.99C408.872 103.268 405.404 106.737 401.126 106.737C396.847 106.737 393.379 103.268 393.379 98.99C393.379 94.7115 396.847 91.2432 401.126 91.2432C405.404 91.2432 408.872 94.7115 408.872 98.99Z" fill="white"/>
<path d="M439.525 98.99C439.525 103.268 436.056 106.737 431.778 106.737C427.5 106.737 424.031 103.268 424.031 98.99C424.031 94.7115 427.5 91.2432 431.778 91.2432C436.056 91.2432 439.525 94.7115 439.525 98.99Z" fill="white"/>
<path d="M73.4224 170.395C64.1211 170.395 55.4592 168.826 47.4368 165.686C39.5307 162.547 32.6709 158.187 26.8576 152.606C21.0443 146.909 16.5099 140.282 13.2544 132.725C9.99893 125.167 8.3712 116.913 8.3712 107.96C8.3712 99.0075 9.99893 90.7525 13.2544 83.1952C16.5099 75.6379 21.0443 69.0688 26.8576 63.488C32.6709 57.7909 39.5307 53.3728 47.4368 50.2336C55.3429 47.0944 64.0048 45.5248 73.4224 45.5248C82.7237 45.5248 91.2693 47.0944 99.0592 50.2336C106.965 53.2565 113.825 57.6165 119.638 63.3136C125.568 68.8944 130.102 75.4635 133.242 83.0208C136.497 90.5781 138.125 98.8912 138.125 107.96C138.125 117.029 136.497 125.342 133.242 132.899C130.102 140.457 125.568 147.084 119.638 152.781C113.825 158.362 106.965 162.722 99.0592 165.861C91.2693 168.884 82.7237 170.395 73.4224 170.395ZM73.4224 154.874C80.1659 154.874 86.3861 153.711 92.0832 151.386C97.8965 149.06 102.896 145.805 107.082 141.619C111.383 137.317 114.697 132.318 117.022 126.621C119.464 120.924 120.685 114.703 120.685 107.96C120.685 101.217 119.464 94.9963 117.022 89.2992C114.697 83.6021 111.383 78.6608 107.082 74.4752C102.896 70.1733 97.8965 66.8597 92.0832 64.5344C86.3861 62.2091 80.1659 61.0464 73.4224 61.0464C66.5627 61.0464 60.2261 62.2091 54.4128 64.5344C48.7157 66.8597 43.7163 70.1733 39.4144 74.4752C35.1125 78.6608 31.7408 83.6021 29.2992 89.2992C26.9739 94.9963 25.8112 101.217 25.8112 107.96C25.8112 114.703 26.9739 120.924 29.2992 126.621C31.7408 132.318 35.1125 137.317 39.4144 141.619C43.7163 145.805 48.7157 149.06 54.4128 151.386C60.2261 153.711 66.5627 154.874 73.4224 154.874ZM202.626 170.046C193.208 170.046 184.779 168.012 177.338 163.942C170.013 159.873 164.258 154.292 160.072 147.2C155.886 140.108 153.794 131.969 153.794 122.784C153.794 113.599 155.886 105.46 160.072 98.368C164.258 91.2757 170.013 85.7531 177.338 81.8C184.779 77.7307 193.208 75.696 202.626 75.696C210.997 75.696 218.438 77.3819 224.949 80.7536C231.576 84.0091 236.692 88.8923 240.296 95.4032L227.565 103.6C224.542 99.0656 220.821 95.752 216.403 93.6592C212.101 91.4501 207.451 90.3456 202.451 90.3456C196.405 90.3456 190.999 91.6827 186.232 94.3568C181.465 97.0309 177.686 100.81 174.896 105.693C172.106 110.46 170.71 116.157 170.71 122.784C170.71 129.411 172.106 135.166 174.896 140.05C177.686 144.933 181.465 148.711 186.232 151.386C190.999 154.06 196.405 155.397 202.451 155.397C207.451 155.397 212.101 154.35 216.403 152.258C220.821 150.049 224.542 146.677 227.565 142.142L240.296 150.165C236.692 156.559 231.576 161.501 224.949 164.989C218.438 168.361 210.997 170.046 202.626 170.046ZM294.905 170.046C285.604 170.046 278.395 167.547 273.279 162.547C268.164 157.548 265.606 150.397 265.606 141.096V56.3376H282.348V140.398C282.348 145.398 283.569 149.235 286.011 151.909C288.568 154.583 292.173 155.92 296.823 155.92C302.055 155.92 306.415 154.467 309.903 151.56L315.135 163.594C312.577 165.803 309.496 167.43 305.892 168.477C302.404 169.523 298.742 170.046 294.905 170.046ZM249.91 90.3456V76.568H308.857V90.3456H249.91ZM571.727 170.046C564.053 170.046 557.019 168.302 550.624 164.814C544.346 161.21 539.288 155.92 535.452 148.944C531.731 141.968 529.871 133.248 529.871 122.784C529.871 112.32 531.673 103.6 535.277 96.624C538.998 89.648 543.997 84.416 550.276 80.928C556.67 77.44 563.821 75.696 571.727 75.696C580.796 75.696 588.818 77.6725 595.794 81.6256C602.77 85.5787 608.293 91.1013 612.362 98.1936C616.431 105.17 618.466 113.366 618.466 122.784C618.466 132.202 616.431 140.457 612.362 147.549C608.293 154.641 602.77 160.164 595.794 164.117C588.818 168.07 580.796 170.046 571.727 170.046ZM522.72 202.834V76.568H538.765V101.507L537.719 122.958L539.463 144.41V202.834H522.72ZM570.332 155.397C576.261 155.397 581.551 154.06 586.202 151.386C590.969 148.711 594.689 144.933 597.364 140.05C600.154 135.05 601.549 129.295 601.549 122.784C601.549 116.157 600.154 110.46 597.364 105.693C594.689 100.81 590.969 97.0309 586.202 94.3568C581.551 91.6827 576.261 90.3456 570.332 90.3456C564.518 90.3456 559.228 91.6827 554.461 94.3568C549.811 97.0309 546.09 100.81 543.3 105.693C540.625 110.46 539.288 116.157 539.288 122.784C539.288 129.295 540.625 135.05 543.3 140.05C546.09 144.933 549.811 148.711 554.461 151.386C559.228 154.06 564.518 155.397 570.332 155.397ZM680.49 170.046C672.584 170.046 665.608 168.593 659.562 165.686C653.632 162.78 648.981 158.362 645.61 152.432C642.354 146.386 640.726 138.829 640.726 129.76V76.568H657.469V127.842C657.469 136.91 659.62 143.712 663.922 148.246C668.34 152.781 674.502 155.048 682.408 155.048C688.221 155.048 693.279 153.885 697.581 151.56C701.883 149.118 705.196 145.63 707.522 141.096C709.847 136.445 711.01 130.865 711.01 124.354V76.568H727.752V169H711.882V144.061L714.498 150.688C711.475 156.85 706.94 161.617 700.894 164.989C694.849 168.361 688.047 170.046 680.49 170.046ZM786.134 170.046C778.46 170.046 771.135 169 764.159 166.907C757.3 164.814 751.893 162.257 747.94 159.234L754.916 145.979C758.869 148.653 763.753 150.921 769.566 152.781C775.379 154.641 781.309 155.571 787.355 155.571C795.145 155.571 800.725 154.467 804.097 152.258C807.585 150.049 809.329 146.967 809.329 143.014C809.329 140.108 808.283 137.841 806.19 136.213C804.097 134.585 801.307 133.364 797.819 132.55C794.447 131.737 790.668 131.039 786.483 130.458C782.297 129.76 778.111 128.946 773.926 128.016C769.74 126.97 765.903 125.574 762.415 123.83C758.927 121.97 756.137 119.47 754.044 116.331C751.951 113.076 750.905 108.774 750.905 103.426C750.905 97.8448 752.475 92.9616 755.614 88.776C758.753 84.5904 763.171 81.3931 768.868 79.184C774.682 76.8587 781.541 75.696 789.447 75.696C795.493 75.696 801.597 76.4517 807.759 77.9632C814.038 79.3584 819.154 81.3931 823.107 84.0672L815.956 97.3216C811.771 94.5312 807.411 92.6128 802.876 91.5664C798.342 90.52 793.807 89.9968 789.273 89.9968C781.948 89.9968 776.484 91.2176 772.879 93.6592C769.275 95.9845 767.473 99.0075 767.473 102.728C767.473 105.867 768.519 108.309 770.612 110.053C772.821 111.681 775.612 112.959 778.983 113.89C782.471 114.82 786.308 115.634 790.494 116.331C794.679 116.913 798.865 117.726 803.051 118.773C807.236 119.703 811.015 121.04 814.387 122.784C817.875 124.528 820.665 126.97 822.758 130.109C824.967 133.248 826.071 137.434 826.071 142.666C826.071 148.246 824.444 153.071 821.188 157.141C817.933 161.21 813.34 164.407 807.411 166.733C801.481 168.942 794.389 170.046 786.134 170.046Z" fill="white"/>
</svg>
